<?xml version="1.0" encoding="UTF-8" standalone="no" ?>
<!DOCTYPE svg PUBLIC "-//W3C//DTD SVG 1.1//EN" "http://www.w3.org/Graphics/SVG/1.1/DTD/svg11.dtd">
<svg xmlns="http://www.w3.org/2000/svg" xmlns:xlink="http://www.w3.org/1999/xlink" version="1.1" width="1280" height="1024" viewBox="0 0 1280 1024" xml:space="preserve">
<desc>Created with Fabric.js 5.3.0</desc>
<defs>
</defs>
<g transform="matrix(1 0 0 1 640 512)" id="background-logo"  >
<rect style="stroke: none; stroke-width: 0; stroke-dasharray: none; stroke-linecap: butt; stroke-dashoffset: 0; stroke-linejoin: miter; stroke-miterlimit: 4; fill: rgb(255,255,255); fill-opacity: 0; fill-rule: nonzero; opacity: 1;"  paint-order="stroke"  x="-640" y="-512" rx="0" ry="0" width="1280" height="1024" />
</g>
<g transform="matrix(1.4195823627982103 0 0 1.41958236279821 260.65703577403167 511.29294814052247)" id="logo-logo"  >
<g style=""  paint-order="stroke"   >
		<g transform="matrix(0.2910994927233577 0 0 0.29109949272335767 0 0)"  >
<linearGradient id="SVGID_3017_127261" gradientUnits="userSpaceOnUse" gradientTransform="matrix(1 0 0 1 138.3908328708053 183.46203149206173)"  x1="723.2183284031328" y1="90.4889430354574" x2="0" y2="542.5870502724808">
<stop offset="35.000000000000014%" style="stop-color:rgb(167,139,250);stop-opacity: 1"/>
<stop offset="88.5%" style="stop-color:rgb(223,196,223);stop-opacity: 1"/>
</linearGradient>
<path style="stroke: none; stroke-width: 1; stroke-dasharray: none; stroke-linecap: butt; stroke-dashoffset: 0; stroke-linejoin: miter; stroke-miterlimit: 4; fill: url(#SVGID_3017_127261); fill-rule: nonzero; opacity: 1;"  paint-order="stroke"  transform=" translate(-499.9999970723717, -500.00002814603084)" d="M 861.4671021 802.060791 L 561.5770874 282.6799011 C 550.7543335 263.9359741 523.6994019 263.9365844 512.8775024 282.6809997 L 272.3676758 699.263855 C 270.8478699 701.8962403 266.85260009999996 699.8874512 268.05917359999995 697.0975342 L 489.60232549999995 184.81921390000002 C 490.08468629999993 183.70387270000003 488.48748789999996 182.90080260000002 487.87991339999996 183.9531708 L 188.0145416 703.3355713 C 177.192337 722.0802001999999 190.720108 745.5109863 212.3645477 745.5109863 L 693.4174041 745.5109863 C 696.4570159 745.5109863 696.7150115 749.9753418 693.6956023 750.3254394 L 139.24534600000004 814.6133422 C 138.03826900000004 814.7532958 138.14138790000004 816.5380248 139.35655210000004 816.5380248 L 738.9872284 816.5380248 C 760.6288910000001 816.5380248 774.1570282 793.1126708 763.3403778 774.3680419 L 522.9081268 357.7115783 C 521.3890838 355.07913199999996 525.1260833 352.6243591 526.9387664 355.0639648 L 859.8558807 803.1194458 C 860.5806885 804.0948486 862.0747681 803.1131592 861.4671021 802.060791 z M 670.4249268 719.8374023 L 321.9506531 719.8374023 C 307.8099365 719.8374023 298.97189330000003 704.529663 306.0421753 692.2833862 L 480.3222961 390.4148254 C 487.39352410000004 378.166809 505.0726318 378.16870109999996 512.1412353000001 390.41821289999996 L 686.3353881 692.2867431999999 C 693.4021606 704.5330811 684.5639648 719.8374023 670.4249268 719.8374023 z" stroke-linecap="round" />
</g>
		<g transform="matrix(0.2910994927233577 0 0 0.29109949272335767 -1.10897856543329 16.869856131416753)"  >
<radialGradient id="SVGID_3018_127262" gradientUnits="userSpaceOnUse" gradientTransform="matrix(1 0 0 1 340.0998084303599 421.73941794241813)"  cx="156.0905682436445" cy="136.21281057879088" r="156.0905682436445" fx="156.0905682436445" fy="136.21281057879088">
<stop offset="26.799999999999997%" style="stop-color:rgb(167,139,250);stop-opacity: 1"/>
<stop offset="100%" style="stop-color:rgb(223,196,223);stop-opacity: 1"/>
</radialGradient>
<path style="stroke: none; stroke-width: 1; stroke-dasharray: none; stroke-linecap: butt; stroke-dashoffset: 0; stroke-linejoin: miter; stroke-miterlimit: 4; fill: url(#SVGID_3018_127262); fill-rule: nonzero; opacity: 1;"  paint-order="stroke"  transform=" translate(-496.19037667400437, -557.952228521209)" d="M 347.63974 694.1650391 L 644.7410278 694.1650391 C 650.5358886 694.1650391 654.1582031 687.8925781999999 651.2619018 682.8734741999999 L 502.7484131 425.505249 C 499.8513794 420.4847717 492.6055603 420.48397819999997 489.707428 425.5038452 L 341.1196594 682.8720703 C 338.2219238 687.8911743 341.8441772 694.1650391 347.63974 694.1650391 z M 490.506073 446.94104 L 490.506073 572.453247 L 468.7622986 610.1169433 L 360.0665894 672.8726806 L 490.506073 446.94104 z M 365.773468 682.7550659 L 474.46728509999997 620.0003661999999 L 517.9509886999999 620.0003661999999 L 626.6165771 682.7550658999999 L 365.773468 682.7550658999999 z M 501.9160156 446.8928223 L 632.3220825 672.8775635 L 523.6567993 610.1230469 L 501.9160156 572.4519042999999 L 501.9160156 446.8928223 z" stroke-linecap="round" />
</g>
</g>
</g>
<g transform="matrix(1.9211538461538462 0 0 1.9211538461538462 815.8708284882422 505.359872131508)" id="text-logo"  >
<g style=""  paint-order="stroke"   >
		<g transform="matrix(1 0 0 1 0 0)" id="text-logo-path-0"  >
<path style="stroke: rgb(255,255,255); stroke-width: 0; stroke-dasharray: none; stroke-linecap: butt; stroke-dashoffset: 0; stroke-linejoin: miter; stroke-miterlimit: 4; fill: rgb(167,139,250); fill-rule: nonzero; opacity: 1;"  paint-order="stroke"  transform=" translate(-180.66, 26.02)" d="M 13.51 0 L 2.25 0 L 22.63 -52.04 L 33.93 -52.04 L 54.46 0 L 43.2 0 L 40.14 -7.66 L 16.65 -7.66 Z M 20.67 -18.25 L 36.07 -18.25 L 28.41 -37.89 Z M 83.12 -15.61 C 83.12 -12.3 85.97 -10.3 88.25 -10.3 L 109.21 -10.3 C 112.03 -10.3 114.45 -12.51 114.45 -15.61 C 114.45 -18.04 112.63 -20.82 109.21 -20.82 L 98.77 -20.82 L 98.77 -31.33 L 109.21 -31.33 C 112.21 -31.33 114.45 -33.26 114.45 -36.5 C 114.45 -39.39 112.21 -41.6 109.21 -41.6 L 88.25 -41.6 C 85.83 -41.6 83.12 -39.74 83.12 -36.5 L 72.64 -36.5 C 72.64 -45.2 79.95 -52.04 88.25 -52.04 L 109.21 -52.04 C 118.05 -52.04 124.9 -44.98 124.9 -36.5 C 124.9 -32.4 123.54 -28.69 120.87 -25.98 C 123.54 -23.06 124.9 -19.6 124.9 -15.61 C 124.9 -6.74 117.66 0 109.21 0 L 88.25 0 C 80.27 0 72.64 -6.56 72.64 -15.61 Z M 217.99 0 L 206.73 0 L 227.12 -52.04 L 238.42 -52.04 L 258.95 0 L 247.69 0 L 244.62 -7.66 L 221.13 -7.66 Z M 225.16 -18.25 L 240.56 -18.25 L 232.89 -37.89 Z M 288.64 0 L 278.34 0 L 278.34 -51.83 L 311.99 -51.83 C 317.01 -51.83 321.5 -49.9 324.92 -46.59 C 328.24 -43.17 330.16 -38.75 330.16 -33.65 C 330.16 -23.77 322.22 -15.54 311.99 -15.54 L 288.64 -15.54 Z M 288.64 -41.53 L 288.64 -25.98 L 311.99 -25.98 C 314.23 -26.02 316.08 -26.73 317.55 -28.19 C 319.01 -29.66 319.72 -31.47 319.76 -33.65 C 319.76 -38.28 316.19 -41.53 311.99 -41.53 Z M 359.07 0 L 348.77 0 L 348.77 -51.97 L 359.07 -51.97 Z" stroke-linecap="round" />
</g>
</g>
</g>
<g transform="matrix(1 0 0 1 235.88719745469996 307.53844764098886)" id="tagline-a9d9e30d-88a5-48d7-912a-6bf38183e8e5-logo"  >
<g style=""  paint-order="stroke"   >
		<g transform="matrix(1 0 0 1 0 0)" id="tagline-a9d9e30d-88a5-48d7-912a-6bf38183e8e5-logo-path-0"  >
<path style="stroke: none; stroke-width: 0; stroke-dasharray: none; stroke-linecap: butt; stroke-dashoffset: 0; stroke-linejoin: miter; stroke-miterlimit: 4; fill: rgb(85,171,214); fill-rule: nonzero; opacity: 1;"  paint-order="stroke"  transform=" translate(0, 0)" d="" stroke-linecap="round" />
</g>
</g>
</g>
</svg>